<svg width="150" height="150" viewBox="0 0 150 150" fill="none" xmlns="http://www.w3.org/2000/svg">
<g clip-path="url(#clip0_23_3)">
<path d="M141.536 0.146729L129.059 135.562L74.9991 150.147L20.9385 135.562L8.46356 0.146729H141.536ZM116.394 27.6814H74.9505H32.7732L34.7903 44.0341H74.9505H77.2063L74.9505 44.9749L36.2581 61.1215L37.5413 77.1058L74.9505 77.2274L95.0007 77.2911L93.7172 98.6041L74.9502 103.898V103.881L74.7964 103.924L56.6722 99.34L55.5724 86.11H55.5123H38.7012H38.642L40.8425 111.65L74.9508 121.757V121.738L75.0123 121.757L108.938 111.834L113.338 61.1215H74.9508H74.8561L74.9508 61.0804L114.745 44.0341L116.394 27.6814Z" fill="#E8E8E8"/>
</g>
<defs>
<clipPath id="clip0_23_3">
<rect width="150" height="150" fill="white"/>
</clipPath>
</defs>
</svg>
