<svg width="150" height="150" viewBox="0 0 150 150" fill="none" xmlns="http://www.w3.org/2000/svg">
<path d="M9 0L21.0129 135.006L74.9209 150L128.978 134.985L141.004 0H9ZM115.946 32.0388L115.194 40.433L114.863 44.1554H114.808H75.0021H74.9443H51.6243L53.1346 61.1108H74.9443H75.0021H108.905H113.359L112.955 65.5568L109.072 109.15L108.823 111.945L75.0021 121.337V121.341L74.9262 121.362L41.0745 111.946L38.7592 85.9476H46.4051H55.3482L56.5248 99.1529L74.9291 104.133L74.9443 104.129V104.127L93.3768 99.1435L95.2934 77.6685H75.0021H74.9443H38.0209L33.9595 32.0388L33.5637 27.5972H74.9446H75.0021H116.341L115.946 32.0388Z" fill="#E8E8E8"/>
</svg>
