<svg width="150" height="150" viewBox="0 0 150 150" fill="none" xmlns="http://www.w3.org/2000/svg">
<g clip-path="url(#clip0_23_15)">
<path fill-rule="evenodd" clip-rule="evenodd" d="M0 0H150V150H0V0ZM114.667 125.748C107.714 125.748 103.783 122.121 100.762 117.188L89.3069 123.843C93.445 132.019 101.902 138.257 114.993 138.257C128.381 138.257 138.35 131.305 138.35 118.614C138.35 106.843 131.588 101.607 119.612 96.4713L116.088 94.9619C110.041 92.3431 107.421 90.6312 107.421 86.4025C107.421 82.9812 110.038 80.3619 114.167 80.3619C118.214 80.3619 120.821 82.0687 123.238 86.4025L134.214 79.355C129.571 71.1881 123.129 68.0687 114.167 68.0687C101.579 68.0687 93.5238 76.1169 93.5238 86.6881C93.5238 98.1644 100.281 103.593 110.452 107.926L113.976 109.438C120.405 112.25 124.238 113.962 124.238 118.795C124.238 122.829 120.507 125.748 114.667 125.748ZM60.0404 125.659C55.1976 125.659 53.1833 122.338 50.969 118.409L39.4952 125.356C42.819 132.391 49.3547 138.231 60.6404 138.231C73.1306 138.231 81.6881 131.588 81.6881 116.993V68.8737H67.5931V116.803C67.5931 123.848 64.6712 125.659 60.0404 125.659Z" fill="#E8E8E8"/>
</g>
<defs>
<clipPath id="clip0_23_15">
<rect width="150" height="150" fill="white"/>
</clipPath>
</defs>
</svg>
