<svg width="631" height="631" viewBox="0 0 631 631" fill="none" xmlns="http://www.w3.org/2000/svg">
<path d="M315.5 538.887C450.638 538.887 560.189 532.491 560.189 524.601C560.189 516.711 450.638 510.315 315.5 510.315C180.362 510.315 70.8108 516.711 70.8108 524.601C70.8108 532.491 180.362 538.887 315.5 538.887Z" fill="#F5F5F5"/>
<path d="M244.967 168.616L231.615 321.192L121.72 311.575L130.667 322.239L240.562 331.855L253.914 179.28L244.967 168.616Z" fill="#263238"/>
<path opacity="0.5" d="M244.967 168.616L231.615 321.192L121.72 311.575L130.667 322.239L240.562 331.855L253.914 179.28L244.967 168.616Z" fill="white"/>
<path d="M244.952 168.613L135.06 158.999L121.711 311.585L231.602 321.199L244.952 168.613Z" fill="#0F0BCC"/>
<path opacity="0.6" d="M244.952 168.613L135.06 158.999L121.711 311.585L231.602 321.199L244.952 168.613Z" fill="white"/>
<path d="M247.97 190.777C247.847 190.765 247.728 190.73 247.619 190.673C247.51 190.615 247.413 190.537 247.334 190.442C247.256 190.347 247.197 190.237 247.161 190.119C247.125 190.001 247.113 189.877 247.125 189.754L247.478 185.729C247.488 185.606 247.521 185.486 247.577 185.376C247.633 185.267 247.711 185.169 247.804 185.089C247.898 185.01 248.007 184.949 248.124 184.912C248.241 184.874 248.365 184.86 248.488 184.87C248.733 184.893 248.96 185.012 249.119 185.201C249.277 185.39 249.354 185.634 249.333 185.88L248.98 189.918C248.97 190.041 248.937 190.161 248.881 190.271C248.825 190.38 248.748 190.478 248.654 190.558C248.56 190.637 248.451 190.698 248.334 190.735C248.217 190.773 248.093 190.787 247.97 190.777Z" fill="#263238"/>
<path d="M241.32 266.749C241.197 266.739 241.078 266.706 240.969 266.65C240.86 266.593 240.763 266.516 240.685 266.422C240.606 266.328 240.547 266.219 240.51 266.102C240.474 265.985 240.462 265.861 240.474 265.739L246.57 196.052C246.579 195.929 246.613 195.81 246.669 195.701C246.725 195.592 246.803 195.495 246.897 195.417C246.991 195.338 247.099 195.279 247.217 195.243C247.334 195.206 247.457 195.194 247.579 195.206C247.702 195.216 247.822 195.249 247.931 195.305C248.041 195.361 248.139 195.439 248.218 195.532C248.298 195.626 248.359 195.735 248.396 195.852C248.434 195.97 248.448 196.093 248.437 196.216L242.304 265.903C242.285 266.146 242.17 266.371 241.986 266.529C241.802 266.687 241.562 266.766 241.32 266.749Z" fill="#263238"/>
<path d="M238.089 303.776C237.841 303.75 237.613 303.629 237.453 303.439C237.293 303.248 237.213 303.002 237.231 302.754L239.78 273.261C239.789 273.139 239.823 273.019 239.879 272.91C239.936 272.801 240.013 272.704 240.107 272.626C240.201 272.547 240.31 272.488 240.427 272.452C240.544 272.416 240.667 272.403 240.79 272.415C241.035 272.438 241.262 272.556 241.421 272.746C241.579 272.935 241.656 273.179 241.635 273.425L239.111 302.918C239.089 303.167 238.969 303.397 238.777 303.558C238.585 303.719 238.338 303.797 238.089 303.776Z" fill="#263238"/>
<path d="M237.016 316.03C236.893 316.02 236.774 315.987 236.664 315.931C236.554 315.875 236.457 315.798 236.377 315.704C236.297 315.61 236.237 315.501 236.199 315.384C236.162 315.267 236.148 315.143 236.158 315.02L236.638 309.594C236.647 309.471 236.681 309.351 236.737 309.242C236.793 309.132 236.87 309.034 236.964 308.955C237.058 308.875 237.166 308.814 237.284 308.777C237.401 308.739 237.525 308.725 237.647 308.736C237.893 308.758 238.12 308.877 238.278 309.066C238.437 309.255 238.514 309.499 238.493 309.745L238.026 315.184C238.003 315.43 237.885 315.657 237.695 315.815C237.506 315.974 237.262 316.051 237.016 316.03Z" fill="#263238"/>
<path d="M160.943 320.889L141.697 319.21C141.451 319.185 141.224 319.063 141.066 318.872C140.907 318.681 140.831 318.435 140.852 318.188C140.874 317.942 140.993 317.715 141.182 317.557C141.371 317.399 141.616 317.321 141.861 317.343L161.107 319.021C161.355 319.047 161.583 319.168 161.743 319.358C161.903 319.549 161.983 319.795 161.965 320.043C161.94 320.29 161.818 320.517 161.627 320.675C161.436 320.833 161.19 320.91 160.943 320.889Z" fill="#263238"/>
<path d="M208.129 325.015L169.335 321.621C169.212 321.611 169.093 321.577 168.983 321.521C168.873 321.465 168.776 321.388 168.696 321.294C168.616 321.201 168.556 321.092 168.518 320.975C168.481 320.857 168.467 320.734 168.477 320.611C168.488 320.488 168.523 320.369 168.581 320.26C168.638 320.151 168.717 320.054 168.812 319.975C168.907 319.897 169.017 319.838 169.135 319.802C169.252 319.766 169.376 319.753 169.499 319.766L208.293 323.16C208.416 323.17 208.536 323.204 208.645 323.26C208.755 323.316 208.852 323.393 208.932 323.487C209.012 323.58 209.072 323.689 209.11 323.806C209.148 323.924 209.162 324.047 209.151 324.17C209.14 324.293 209.105 324.412 209.047 324.521C208.99 324.63 208.911 324.727 208.816 324.806C208.721 324.884 208.612 324.943 208.494 324.979C208.376 325.015 208.252 325.028 208.129 325.015Z" fill="#263238"/>
<path d="M218.995 325.962L213.72 325.508C213.474 325.485 213.247 325.366 213.089 325.177C212.93 324.988 212.853 324.744 212.874 324.498C212.884 324.375 212.917 324.256 212.973 324.146C213.029 324.036 213.107 323.939 213.2 323.859C213.294 323.779 213.403 323.719 213.52 323.681C213.637 323.644 213.761 323.63 213.884 323.64L219.159 324.107C219.282 324.116 219.401 324.15 219.511 324.206C219.621 324.262 219.718 324.339 219.798 324.433C219.878 324.527 219.938 324.636 219.976 324.753C220.013 324.87 220.027 324.994 220.017 325.116C220.006 325.239 219.971 325.359 219.913 325.468C219.856 325.577 219.777 325.674 219.682 325.752C219.587 325.831 219.477 325.89 219.359 325.926C219.242 325.962 219.118 325.974 218.995 325.962Z" fill="#263238"/>
<g opacity="0.4">
<path d="M247.97 190.777C247.848 190.765 247.728 190.73 247.619 190.673C247.51 190.615 247.413 190.537 247.335 190.442C247.256 190.347 247.197 190.237 247.161 190.119C247.125 190.001 247.113 189.877 247.125 189.754L247.478 185.729C247.488 185.606 247.522 185.486 247.578 185.376C247.634 185.267 247.711 185.169 247.805 185.089C247.898 185.01 248.007 184.949 248.124 184.912C248.242 184.874 248.365 184.86 248.488 184.87C248.734 184.893 248.96 185.012 249.119 185.201C249.277 185.39 249.354 185.634 249.333 185.88L248.98 189.918C248.97 190.041 248.937 190.161 248.881 190.271C248.825 190.38 248.748 190.478 248.654 190.558C248.56 190.637 248.451 190.698 248.334 190.735C248.217 190.773 248.093 190.787 247.97 190.777Z" fill="white"/>
<path d="M241.32 266.749C241.197 266.739 241.078 266.706 240.969 266.65C240.86 266.593 240.763 266.516 240.685 266.422C240.606 266.328 240.547 266.219 240.51 266.102C240.474 265.985 240.462 265.861 240.474 265.739L246.57 196.052C246.579 195.929 246.613 195.81 246.669 195.701C246.725 195.592 246.803 195.495 246.897 195.417C246.991 195.338 247.099 195.279 247.217 195.243C247.334 195.206 247.457 195.194 247.579 195.206C247.702 195.216 247.822 195.249 247.931 195.305C248.041 195.361 248.139 195.439 248.218 195.532C248.298 195.626 248.359 195.735 248.396 195.852C248.434 195.97 248.448 196.093 248.437 196.216L242.304 265.903C242.285 266.146 242.17 266.371 241.986 266.529C241.802 266.687 241.562 266.766 241.32 266.749Z" fill="white"/>
<path d="M238.089 303.776C237.841 303.75 237.613 303.629 237.453 303.439C237.293 303.248 237.213 303.002 237.231 302.754L239.78 273.261C239.79 273.139 239.823 273.019 239.88 272.91C239.936 272.801 240.013 272.704 240.107 272.626C240.201 272.547 240.31 272.488 240.427 272.452C240.544 272.416 240.668 272.403 240.79 272.415C241.035 272.438 241.262 272.556 241.421 272.746C241.579 272.935 241.656 273.179 241.635 273.425L239.111 302.918C239.089 303.167 238.969 303.397 238.777 303.558C238.586 303.719 238.338 303.797 238.089 303.776Z" fill="white"/>
<path d="M237.016 316.03C236.893 316.021 236.774 315.987 236.664 315.931C236.554 315.875 236.457 315.798 236.377 315.704C236.297 315.61 236.237 315.501 236.199 315.384C236.162 315.267 236.148 315.143 236.158 315.02L236.638 309.594C236.647 309.471 236.681 309.351 236.737 309.242C236.793 309.132 236.87 309.034 236.964 308.955C237.058 308.875 237.166 308.815 237.284 308.777C237.401 308.739 237.525 308.725 237.647 308.736C237.893 308.758 238.12 308.877 238.278 309.066C238.437 309.255 238.514 309.499 238.493 309.745L238.026 315.185C238.003 315.43 237.885 315.657 237.695 315.816C237.506 315.974 237.262 316.051 237.016 316.03Z" fill="white"/>
<path d="M160.943 320.889L141.697 319.21C141.451 319.185 141.224 319.063 141.066 318.872C140.907 318.681 140.831 318.435 140.852 318.188C140.874 317.942 140.993 317.715 141.182 317.557C141.371 317.399 141.616 317.321 141.861 317.343L161.107 319.021C161.355 319.047 161.583 319.168 161.743 319.358C161.903 319.549 161.983 319.795 161.965 320.043C161.94 320.29 161.818 320.517 161.627 320.675C161.436 320.833 161.19 320.91 160.943 320.889Z" fill="white"/>
<path d="M208.129 325.015L169.335 321.621C169.212 321.611 169.093 321.577 168.983 321.521C168.873 321.465 168.776 321.388 168.696 321.294C168.616 321.201 168.556 321.092 168.518 320.975C168.481 320.857 168.467 320.734 168.477 320.611C168.488 320.488 168.523 320.369 168.581 320.26C168.638 320.151 168.717 320.054 168.812 319.975C168.907 319.897 169.017 319.838 169.135 319.802C169.253 319.766 169.377 319.753 169.499 319.766L208.293 323.16C208.416 323.17 208.536 323.204 208.645 323.26C208.755 323.316 208.853 323.393 208.932 323.487C209.012 323.58 209.072 323.689 209.11 323.806C209.148 323.924 209.162 324.047 209.151 324.17C209.14 324.293 209.105 324.412 209.047 324.521C208.99 324.63 208.911 324.727 208.816 324.806C208.721 324.884 208.612 324.943 208.494 324.979C208.376 325.015 208.252 325.028 208.129 325.015Z" fill="white"/>
<path d="M218.995 325.962L213.72 325.508C213.474 325.485 213.247 325.366 213.089 325.177C212.93 324.988 212.853 324.744 212.874 324.498C212.884 324.375 212.917 324.256 212.973 324.146C213.029 324.036 213.107 323.939 213.2 323.859C213.294 323.779 213.403 323.719 213.52 323.681C213.637 323.644 213.761 323.63 213.884 323.64L219.159 324.107C219.282 324.116 219.401 324.15 219.511 324.206C219.621 324.262 219.718 324.339 219.798 324.433C219.878 324.527 219.938 324.636 219.976 324.753C220.013 324.87 220.027 324.994 220.017 325.116C220.006 325.239 219.971 325.359 219.913 325.468C219.856 325.577 219.777 325.674 219.682 325.752C219.587 325.831 219.477 325.89 219.359 325.926C219.242 325.962 219.118 325.974 218.995 325.962Z" fill="white"/>
</g>
<path d="M140.599 222.516C136.7 223.084 124.938 221.14 124.938 221.14L122.3 251.428C122.3 251.428 134.214 251.554 137.949 252.791C139.102 253.361 140.204 254.028 141.243 254.785L144.183 221.14C143.031 221.701 141.832 222.162 140.599 222.516Z" fill="#263238"/>
<path d="M139.022 253.309C140.044 253.914 141.243 254.76 141.243 254.76L144.183 221.115C144.183 221.115 142.921 221.746 141.748 222.162L139.022 253.309Z" fill="black"/>
<path d="M141.559 256.489C141.127 256.45 140.729 256.243 140.45 255.912C140.171 255.581 140.034 255.153 140.069 254.722L143.022 220.964C143.04 220.748 143.1 220.539 143.199 220.347C143.298 220.155 143.435 219.985 143.6 219.846C143.766 219.708 143.957 219.603 144.164 219.54C144.37 219.476 144.587 219.454 144.802 219.474C145.015 219.492 145.223 219.551 145.414 219.65C145.604 219.749 145.773 219.884 145.91 220.049C146.048 220.213 146.151 220.403 146.214 220.608C146.277 220.813 146.299 221.028 146.278 221.241L143.325 255C143.308 255.214 143.248 255.422 143.15 255.613C143.051 255.804 142.916 255.974 142.752 256.112C142.588 256.25 142.398 256.355 142.193 256.42C141.988 256.484 141.772 256.508 141.559 256.489Z" fill="#263238"/>
<path d="M139.792 229.798L138.416 245.446L127.702 240.903C127.511 240.83 127.304 240.811 127.103 240.849C126.903 240.887 126.717 240.98 126.566 241.118C125.896 241.713 125.112 242.166 124.262 242.448C123.411 242.73 122.512 242.836 121.619 242.758C121.012 242.735 120.417 242.584 119.873 242.314C119.33 242.045 118.849 241.663 118.464 241.193C117.038 239.376 117.278 236.41 117.694 233.748C117.876 232.494 118.536 231.359 119.536 230.58C120.535 229.802 121.797 229.44 123.058 229.57C124.752 229.789 126.295 230.658 127.361 231.993C127.482 232.161 127.649 232.29 127.841 232.366C128.033 232.442 128.243 232.462 128.446 232.423L139.792 229.798ZM137.192 243.402L138.227 231.602L128.762 233.785C128.298 233.887 127.816 233.855 127.369 233.694C126.923 233.534 126.531 233.25 126.238 232.877C125.406 231.822 124.199 231.13 122.868 230.946C121.971 230.866 121.077 231.135 120.372 231.697C119.667 232.258 119.205 233.069 119.082 233.962C118.729 236.183 118.464 238.909 119.562 240.272C119.833 240.584 120.165 240.837 120.539 241.013C120.913 241.189 121.319 241.285 121.733 241.294C122.436 241.363 123.147 241.287 123.82 241.07C124.493 240.853 125.114 240.499 125.645 240.032C125.988 239.714 126.415 239.501 126.876 239.418C127.337 239.336 127.812 239.387 128.244 239.565L137.192 243.402Z" fill="#263238"/>
<g opacity="0.5">
<path d="M139.792 229.798L138.416 245.446L127.702 240.903C127.511 240.83 127.304 240.811 127.103 240.849C126.903 240.887 126.717 240.98 126.566 241.118C125.896 241.713 125.112 242.166 124.262 242.448C123.411 242.73 122.512 242.836 121.619 242.758C121.012 242.735 120.417 242.584 119.873 242.314C119.33 242.045 118.849 241.663 118.464 241.193C117.038 239.376 117.278 236.41 117.694 233.748C117.876 232.494 118.536 231.359 119.536 230.58C120.535 229.802 121.797 229.44 123.058 229.57C124.752 229.789 126.295 230.658 127.361 231.993C127.482 232.161 127.649 232.29 127.841 232.366C128.033 232.442 128.243 232.462 128.446 232.423L139.792 229.798ZM137.192 243.402L138.227 231.602L128.762 233.785C128.298 233.887 127.816 233.855 127.369 233.694C126.923 233.534 126.531 233.25 126.238 232.877C125.406 231.822 124.199 231.13 122.868 230.946C121.971 230.866 121.077 231.135 120.372 231.697C119.667 232.258 119.205 233.069 119.082 233.962C118.729 236.183 118.464 238.909 119.562 240.272C119.833 240.584 120.165 240.837 120.539 241.013C120.913 241.189 121.319 241.285 121.733 241.294C122.436 241.363 123.147 241.287 123.82 241.07C124.493 240.853 125.114 240.499 125.645 240.032C125.988 239.714 126.415 239.501 126.876 239.418C127.337 239.336 127.812 239.387 128.244 239.565L137.192 243.402Z" fill="white"/>
</g>
<path d="M170.471 179.923L167.947 179.709L168.073 178.232L174.888 178.825L174.762 180.302L172.238 180.075L171.682 186.385L169.865 186.233L170.471 179.923Z" fill="#263238"/>
<path d="M183.066 179.532L182.384 187.356L180.567 187.205L180.845 184L177.298 183.684L177.021 186.89L175.203 186.738L175.885 178.914L177.702 179.065L177.425 182.157L180.983 182.46L181.248 179.381L183.066 179.532Z" fill="#263238"/>
<path d="M190.423 186.599L190.297 188.051L184.239 187.521L184.921 179.696L190.827 180.214L190.701 181.665L186.587 181.312L186.448 183.003L190.07 183.331L189.956 184.732L186.322 184.416L186.158 186.221L190.423 186.599Z" fill="#263238"/>
<path d="M192.518 188.126C192.031 187.95 191.578 187.689 191.18 187.356L191.925 186.094C192.262 186.387 192.646 186.622 193.061 186.789C193.496 186.971 193.955 187.09 194.424 187.142C194.816 187.201 195.217 187.153 195.585 187.003C195.702 186.957 195.804 186.88 195.879 186.78C195.955 186.679 196.002 186.56 196.014 186.435C196.021 186.345 196.008 186.255 195.978 186.17C195.947 186.086 195.899 186.008 195.837 185.943C195.682 185.8 195.502 185.684 195.307 185.602C195.08 185.501 194.777 185.4 194.399 185.274C193.912 185.12 193.435 184.935 192.972 184.719C192.609 184.544 192.293 184.284 192.051 183.962C191.808 183.589 191.705 183.141 191.761 182.7C191.792 182.262 191.955 181.844 192.228 181.501C192.565 181.125 193.003 180.854 193.49 180.718C194.087 180.541 194.713 180.486 195.332 180.554C195.827 180.602 196.314 180.708 196.784 180.87C197.237 181.002 197.663 181.211 198.046 181.488L197.364 182.75C196.743 182.303 196.017 182.025 195.257 181.942C194.867 181.887 194.47 181.94 194.108 182.094C193.992 182.153 193.893 182.241 193.82 182.349C193.747 182.457 193.703 182.582 193.692 182.712C193.68 182.842 193.709 182.973 193.774 183.086C193.84 183.199 193.939 183.289 194.058 183.343C194.46 183.555 194.883 183.724 195.32 183.848C195.804 184.004 196.28 184.185 196.746 184.391C197.109 184.566 197.425 184.826 197.667 185.148C197.917 185.518 198.02 185.968 197.957 186.41C197.941 186.872 197.773 187.316 197.478 187.672C197.143 188.05 196.704 188.323 196.216 188.454C195.614 188.631 194.984 188.687 194.361 188.618C193.725 188.547 193.105 188.381 192.518 188.126Z" fill="#263238"/>
<path d="M199.547 180.983L201.352 181.135L200.671 188.959L198.866 188.808L199.547 180.983Z" fill="#263238"/>
<path d="M203.321 189.073C202.832 188.899 202.379 188.638 201.983 188.303L202.715 187.041C203.057 187.334 203.445 187.569 203.863 187.735C204.296 187.922 204.757 188.037 205.226 188.076C205.618 188.144 206.02 188.1 206.387 187.95C206.504 187.901 206.604 187.821 206.678 187.718C206.751 187.616 206.795 187.495 206.804 187.369C206.815 187.281 206.805 187.191 206.774 187.108C206.743 187.024 206.693 186.949 206.627 186.89C206.477 186.739 206.296 186.623 206.097 186.549C205.804 186.424 205.505 186.314 205.201 186.221C204.713 186.069 204.237 185.884 203.775 185.665C203.405 185.496 203.086 185.23 202.854 184.896C202.602 184.526 202.494 184.077 202.551 183.634C202.586 183.195 202.753 182.777 203.03 182.435C203.343 182.066 203.755 181.794 204.217 181.652C204.814 181.477 205.44 181.421 206.059 181.488C206.553 181.537 207.039 181.638 207.511 181.791C207.961 181.935 208.387 182.148 208.773 182.422L208.091 183.684C207.469 183.231 206.737 182.952 205.971 182.876C205.586 182.82 205.192 182.873 204.835 183.028C204.714 183.082 204.611 183.169 204.535 183.278C204.459 183.387 204.415 183.514 204.406 183.646C204.394 183.776 204.423 183.907 204.489 184.02C204.554 184.133 204.653 184.223 204.772 184.277C205.177 184.479 205.6 184.643 206.034 184.769C206.519 184.929 206.995 185.114 207.46 185.325C207.825 185.497 208.142 185.757 208.381 186.082C208.63 186.453 208.737 186.9 208.684 187.344C208.662 187.805 208.494 188.246 208.205 188.606C207.87 188.983 207.431 189.251 206.943 189.376C206.342 189.558 205.711 189.613 205.088 189.54C204.479 189.471 203.884 189.313 203.321 189.073Z" fill="#263238"/>
<path d="M216.685 201.352L157.233 196.153C156.865 196.117 156.526 195.939 156.29 195.655C156.054 195.371 155.939 195.006 155.971 194.638C156.009 194.27 156.19 193.931 156.476 193.695C156.762 193.459 157.128 193.344 157.498 193.376L216.938 198.576C217.12 198.591 217.298 198.643 217.461 198.728C217.623 198.813 217.767 198.929 217.884 199.07C218.002 199.211 218.09 199.373 218.144 199.548C218.198 199.723 218.217 199.908 218.2 200.09C218.184 200.273 218.132 200.45 218.047 200.613C217.962 200.775 217.846 200.919 217.706 201.037C217.565 201.154 217.402 201.242 217.227 201.296C217.052 201.35 216.868 201.369 216.685 201.352Z" fill="#263238"/>
<path d="M208.104 209.328L164.3 205.542C163.932 205.507 163.594 205.328 163.357 205.044C163.121 204.761 163.006 204.395 163.038 204.027C163.076 203.659 163.258 203.32 163.543 203.084C163.829 202.848 164.196 202.734 164.565 202.765L208.356 206.551C208.539 206.567 208.716 206.619 208.879 206.704C209.041 206.789 209.185 206.905 209.303 207.046C209.42 207.187 209.508 207.349 209.562 207.524C209.617 207.699 209.636 207.883 209.618 208.066C209.583 208.433 209.404 208.772 209.121 209.008C208.837 209.245 208.472 209.359 208.104 209.328Z" fill="#263238"/>
<path d="M217.821 291.749C217.812 291.871 217.778 291.991 217.722 292.1C217.666 292.209 217.588 292.305 217.494 292.384C217.4 292.463 217.291 292.522 217.174 292.558C217.057 292.594 216.934 292.607 216.812 292.595L141.268 285.994C141.145 285.983 141.026 285.948 140.917 285.891C140.808 285.833 140.711 285.755 140.632 285.659C140.554 285.564 140.495 285.455 140.459 285.337C140.423 285.219 140.411 285.095 140.423 284.972C140.432 284.85 140.466 284.731 140.522 284.622C140.578 284.513 140.656 284.416 140.75 284.337C140.844 284.258 140.953 284.199 141.07 284.163C141.187 284.127 141.31 284.114 141.432 284.127L216.976 290.739C217.098 290.749 217.217 290.783 217.326 290.839C217.435 290.895 217.532 290.972 217.611 291.066C217.69 291.161 217.749 291.269 217.785 291.387C217.821 291.504 217.833 291.627 217.821 291.749Z" fill="#263238"/>
<path d="M209.24 299.725C209.23 299.847 209.196 299.966 209.14 300.075C209.084 300.185 209.007 300.281 208.913 300.36C208.819 300.439 208.71 300.498 208.593 300.534C208.475 300.57 208.352 300.583 208.23 300.57L148.336 295.308C148.09 295.286 147.863 295.167 147.704 294.978C147.546 294.788 147.469 294.544 147.49 294.298C147.5 294.176 147.533 294.056 147.589 293.946C147.645 293.836 147.722 293.739 147.816 293.659C147.91 293.579 148.019 293.519 148.136 293.481C148.253 293.444 148.377 293.43 148.5 293.44L208.394 298.677C208.517 298.689 208.636 298.724 208.746 298.781C208.855 298.839 208.951 298.917 209.03 299.012C209.109 299.107 209.168 299.217 209.204 299.335C209.24 299.453 209.252 299.577 209.24 299.7V299.725Z" fill="#263238"/>
<path d="M193.568 260.378C200.717 254.379 201.65 243.72 195.651 236.571C189.652 229.422 178.993 228.49 171.844 234.488C164.695 240.487 163.763 251.146 169.761 258.295C175.76 265.444 186.419 266.377 193.568 260.378Z" fill="#0F0BCC"/>
<path d="M190.032 252.993C189.931 254.192 186.372 254.861 182.081 254.482C177.791 254.104 174.408 252.829 174.509 251.63L174.976 246.393L190.499 247.743L190.032 252.993Z" fill="#263238"/>
<path opacity="0.6" d="M174.85 247.857C175.443 248.942 178.636 250.002 182.422 250.381C186.208 250.759 189.565 250.217 190.347 249.245L190.474 247.781L174.951 246.431L174.85 247.857Z" fill="black"/>
<path d="M182.409 249.876L169.916 244.828C169.856 244.81 169.804 244.773 169.767 244.723C169.73 244.673 169.71 244.613 169.71 244.55C169.71 244.488 169.73 244.428 169.767 244.378C169.804 244.328 169.856 244.291 169.916 244.273L183.179 240.487C183.211 240.471 183.245 240.463 183.28 240.463C183.315 240.463 183.35 240.471 183.381 240.487L195.787 246.532C195.841 246.555 195.887 246.594 195.919 246.643C195.951 246.693 195.969 246.75 195.969 246.809C195.969 246.868 195.951 246.926 195.919 246.975C195.887 247.025 195.841 247.063 195.787 247.087L182.586 249.876C182.528 249.889 182.468 249.889 182.409 249.876Z" fill="#263238"/>
<path d="M399.751 366.624L382.083 327.388H340.664L346.974 364.1C347.11 364.959 346.903 365.837 346.398 366.545C345.893 367.253 345.13 367.734 344.274 367.886H343.744H325.596C325.131 367.886 324.685 368.071 324.356 368.4C324.027 368.728 323.842 369.175 323.842 369.64V371.583C323.842 372.049 324.027 372.495 324.356 372.824C324.685 373.153 325.131 373.338 325.596 373.338H398.451C398.957 373.338 399.441 373.137 399.799 372.779C400.156 372.422 400.357 371.937 400.357 371.432V369.413C400.351 368.451 400.144 367.501 399.751 366.624ZM380.594 361.778H360.717C360.091 361.777 359.485 361.556 359.007 361.151C358.529 360.747 358.209 360.187 358.105 359.569L355.102 342.242C355.042 341.898 355.051 341.546 355.128 341.205C355.204 340.864 355.348 340.542 355.55 340.257C355.751 339.973 356.007 339.73 356.303 339.544C356.599 339.359 356.928 339.233 357.272 339.175H357.727H372.757C373.267 339.173 373.768 339.318 374.197 339.594C374.627 339.869 374.969 340.263 375.18 340.727L383.017 358.055C383.199 358.462 383.277 358.908 383.244 359.352C383.211 359.797 383.068 360.226 382.828 360.602C382.587 360.977 382.257 361.287 381.867 361.504C381.477 361.72 381.04 361.836 380.594 361.841V361.778Z" fill="#263238"/>
<path opacity="0.5" d="M399.751 366.624L382.083 327.388H340.664L346.974 364.1C347.11 364.959 346.903 365.837 346.398 366.545C345.893 367.253 345.13 367.734 344.274 367.886H343.744H325.596C325.131 367.886 324.685 368.071 324.356 368.4C324.027 368.728 323.842 369.175 323.842 369.64V371.583C323.842 372.049 324.027 372.495 324.356 372.824C324.685 373.153 325.131 373.338 325.596 373.338H398.451C398.957 373.338 399.441 373.137 399.799 372.779C400.156 372.422 400.357 371.937 400.357 371.432V369.413C400.351 368.451 400.144 367.501 399.751 366.624ZM380.594 361.778H360.717C360.091 361.777 359.485 361.556 359.007 361.151C358.529 360.747 358.209 360.187 358.105 359.569L355.102 342.242C355.042 341.898 355.051 341.546 355.128 341.205C355.204 340.864 355.348 340.542 355.55 340.257C355.751 339.973 356.007 339.73 356.303 339.544C356.599 339.359 356.928 339.233 357.272 339.175H357.727H372.757C373.267 339.173 373.768 339.318 374.197 339.594C374.627 339.869 374.969 340.263 375.18 340.727L383.017 358.055C383.199 358.462 383.277 358.908 383.244 359.352C383.211 359.797 383.068 360.226 382.828 360.602C382.587 360.977 382.257 361.287 381.867 361.504C381.477 361.72 381.04 361.836 380.594 361.841V361.778Z" fill="white"/>
<path opacity="0.2" d="M380.594 361.778H360.717C360.091 361.777 359.485 361.556 359.007 361.151C358.529 360.747 358.209 360.187 358.105 359.569L355.102 342.242C355.042 341.898 355.051 341.545 355.128 341.205C355.204 340.864 355.348 340.542 355.55 340.257C355.751 339.972 356.007 339.73 356.303 339.544C356.599 339.359 356.928 339.233 357.272 339.175H357.727H372.757C373.267 339.173 373.768 339.318 374.197 339.594C374.627 339.869 374.969 340.263 375.18 340.727L383.017 358.055C383.199 358.462 383.277 358.908 383.244 359.352C383.211 359.797 383.068 360.226 382.828 360.602C382.587 360.977 382.257 361.287 381.867 361.503C381.477 361.72 381.04 361.836 380.594 361.841V361.778Z" fill="white"/>
<path d="M360.061 339.099H357.726C357.377 339.098 357.031 339.165 356.708 339.298C356.385 339.43 356.092 339.625 355.844 339.871C355.597 340.117 355.401 340.41 355.267 340.733C355.133 341.055 355.064 341.401 355.064 341.75C355.051 341.901 355.051 342.053 355.064 342.204L358.067 359.531C358.169 360.149 358.489 360.709 358.968 361.112C359.447 361.514 360.054 361.733 360.68 361.727H363.027C362.401 361.733 361.794 361.514 361.315 361.112C360.836 360.709 360.517 360.149 360.415 359.531L357.411 342.204C357.35 341.86 357.357 341.507 357.433 341.166C357.509 340.824 357.653 340.502 357.855 340.216C358.057 339.931 358.313 339.689 358.61 339.504C358.906 339.318 359.237 339.194 359.582 339.137C359.74 339.11 359.901 339.097 360.061 339.099Z" fill="#263238"/>
<path d="M402.098 366.624L384.43 327.413H382.096L399.764 366.624C400.18 367.539 400.395 368.533 400.395 369.539V371.571C400.391 372.075 400.19 372.558 399.833 372.915C399.476 373.271 398.993 373.473 398.489 373.476H400.836C401.341 373.473 401.824 373.271 402.18 372.915C402.537 372.558 402.739 372.075 402.742 371.571V369.539C402.738 368.532 402.519 367.538 402.098 366.624Z" fill="#263238"/>
<path opacity="0.2" d="M382.033 327.388H340.652L342.28 336.752H386.273L382.033 327.388Z" fill="black"/>
<path d="M441.397 331.502H264.856C263.316 331.526 261.829 330.939 260.72 329.871C259.611 328.802 258.97 327.338 258.937 325.798C258.918 325.542 258.918 325.284 258.937 325.028L270.093 197.453C270.266 195.702 271.077 194.077 272.371 192.885C273.665 191.694 275.351 191.02 277.11 190.991H453.689C454.453 190.974 455.212 191.109 455.924 191.387C456.636 191.665 457.285 192.081 457.835 192.611C458.386 193.142 458.825 193.775 459.13 194.476C459.434 195.177 459.596 195.931 459.608 196.695C459.627 196.947 459.627 197.201 459.608 197.453L448.439 325.041C448.263 326.794 447.448 328.422 446.149 329.613C444.851 330.805 443.159 331.477 441.397 331.502Z" fill="#263238"/>
<path d="M260.174 311.247L258.912 325.041C258.824 325.799 258.887 326.568 259.098 327.302C259.308 328.036 259.661 328.721 260.138 329.318C260.614 329.915 261.203 330.412 261.872 330.78C262.541 331.149 263.276 331.381 264.036 331.464C264.287 331.49 264.541 331.49 264.793 331.464H441.347C443.105 331.436 444.792 330.762 446.086 329.57C447.379 328.379 448.19 326.753 448.363 325.003L449.625 311.209L260.174 311.247Z" fill="#0F0BCC"/>
<path opacity="0.7" d="M260.174 311.247L258.912 325.041C258.824 325.799 258.887 326.568 259.098 327.302C259.308 328.036 259.661 328.721 260.138 329.318C260.614 329.915 261.203 330.412 261.872 330.78C262.541 331.149 263.276 331.381 264.036 331.464C264.287 331.49 264.541 331.49 264.793 331.464H441.347C443.105 331.436 444.792 330.762 446.086 329.57C447.379 328.379 448.19 326.753 448.363 325.003L449.625 311.209L260.174 311.247Z" fill="white"/>
<path d="M443.391 307.348H267.077C266.663 307.356 266.252 307.282 265.867 307.131C265.481 306.98 265.13 306.755 264.832 306.467C264.534 306.18 264.296 305.837 264.131 305.457C263.966 305.078 263.878 304.669 263.872 304.256C263.859 304.121 263.859 303.986 263.872 303.852L273.097 198.412C273.192 197.467 273.63 196.59 274.327 195.946C275.025 195.302 275.934 194.936 276.883 194.916H453.235C453.648 194.908 454.06 194.981 454.445 195.132C454.83 195.283 455.182 195.509 455.48 195.796C455.778 196.083 456.016 196.427 456.18 196.806C456.345 197.186 456.434 197.594 456.44 198.008C456.44 198.134 456.44 198.273 456.44 198.412L447.215 303.852C447.116 304.802 446.672 305.682 445.967 306.326C445.263 306.971 444.346 307.334 443.391 307.348Z" fill="#0F0BCC"/>
<path opacity="0.8" d="M443.391 307.348H267.077C266.663 307.356 266.252 307.282 265.867 307.131C265.481 306.98 265.13 306.755 264.832 306.467C264.534 306.18 264.296 305.837 264.131 305.457C263.966 305.078 263.878 304.669 263.872 304.256C263.859 304.121 263.859 303.986 263.872 303.852L273.097 198.412C273.192 197.467 273.63 196.59 274.327 195.946C275.025 195.302 275.934 194.936 276.883 194.916H453.235C453.648 194.908 454.06 194.981 454.445 195.132C454.83 195.283 455.182 195.509 455.48 195.796C455.778 196.083 456.016 196.427 456.18 196.806C456.345 197.186 456.434 197.594 456.44 198.008C456.44 198.134 456.44 198.273 456.44 198.412L447.215 303.852C447.116 304.802 446.672 305.682 445.967 306.326C445.263 306.971 444.346 307.334 443.391 307.348Z" fill="#0F0BCC"/>
<path d="M457.601 191.016H453.689C454.453 191 455.213 191.134 455.924 191.412C456.636 191.69 457.285 192.107 457.836 192.637C458.386 193.167 458.825 193.801 459.13 194.502C459.434 195.203 459.596 195.957 459.608 196.721C459.627 196.973 459.627 197.226 459.608 197.478L448.439 325.041C448.266 326.791 447.455 328.417 446.161 329.608C444.868 330.799 443.181 331.474 441.422 331.502H445.335C447.092 331.473 448.777 330.799 450.069 329.607C451.36 328.415 452.168 326.79 452.339 325.041L463.507 197.465C463.592 196.707 463.525 195.94 463.313 195.207C463.1 194.474 462.745 193.79 462.268 193.195C461.791 192.6 461.201 192.104 460.533 191.737C459.864 191.369 459.129 191.138 458.371 191.054L457.601 191.016Z" fill="#0F0BCC"/>
<path opacity="0.2" d="M457.601 191.016H453.689C454.453 191 455.213 191.134 455.924 191.412C456.636 191.69 457.285 192.107 457.836 192.637C458.386 193.167 458.825 193.801 459.13 194.502C459.434 195.203 459.596 195.957 459.608 196.721C459.627 196.973 459.627 197.226 459.608 197.478L448.439 325.041C448.266 326.791 447.455 328.417 446.161 329.608C444.868 330.799 443.181 331.474 441.422 331.502H445.335C447.092 331.473 448.777 330.799 450.069 329.607C451.36 328.415 452.168 326.79 452.339 325.041L463.507 197.465C463.592 196.707 463.525 195.94 463.313 195.207C463.1 194.474 462.745 193.79 462.268 193.195C461.791 192.6 461.201 192.104 460.533 191.737C459.864 191.369 459.129 191.138 458.371 191.054L457.601 191.016Z" fill="white"/>
<path d="M310.73 306.565H391.624L400.912 200.368H320.031L310.73 306.565Z" fill="#0F0BCC"/>
<path opacity="0.7" d="M310.73 306.565H391.624L400.912 200.368H320.031L310.73 306.565Z" fill="white"/>
<path d="M339.932 214.061H380.682C380.944 214.056 381.195 213.956 381.387 213.779C381.58 213.603 381.702 213.361 381.73 213.101C381.74 212.981 381.725 212.859 381.686 212.745C381.647 212.63 381.585 212.525 381.503 212.436C381.421 212.347 381.322 212.276 381.211 212.228C381.1 212.179 380.98 212.154 380.859 212.155H340.096C339.837 212.159 339.588 212.258 339.395 212.432C339.202 212.606 339.079 212.844 339.049 213.101C339.036 213.224 339.05 213.348 339.089 213.465C339.128 213.582 339.191 213.689 339.275 213.78C339.358 213.871 339.46 213.942 339.573 213.991C339.687 214.039 339.809 214.063 339.932 214.061Z" fill="#263238"/>
<path d="M326.227 266.017H376.139C376.401 266.012 376.651 265.912 376.844 265.736C377.037 265.559 377.159 265.318 377.187 265.058C377.197 264.936 377.182 264.814 377.142 264.698C377.103 264.583 377.039 264.477 376.956 264.388C376.872 264.299 376.771 264.228 376.659 264.18C376.546 264.133 376.425 264.109 376.303 264.111H326.391C326.132 264.113 325.883 264.211 325.692 264.386C325.501 264.561 325.381 264.8 325.356 265.058C325.342 265.18 325.354 265.304 325.391 265.421C325.428 265.537 325.49 265.645 325.573 265.736C325.656 265.827 325.757 265.899 325.869 265.948C325.982 265.996 326.104 266.02 326.227 266.017Z" fill="#263238"/>
<path d="M325.735 271.57H382.739C383 271.568 383.251 271.468 383.442 271.291C383.634 271.113 383.752 270.871 383.774 270.611C383.787 270.49 383.773 270.368 383.735 270.252C383.697 270.137 383.634 270.031 383.552 269.941C383.47 269.852 383.369 269.781 383.257 269.733C383.146 269.685 383.025 269.662 382.903 269.664H325.911C325.652 269.669 325.403 269.767 325.21 269.941C325.017 270.115 324.894 270.353 324.864 270.611C324.852 270.732 324.865 270.855 324.903 270.971C324.941 271.087 325.003 271.194 325.086 271.284C325.168 271.375 325.268 271.447 325.38 271.496C325.492 271.545 325.613 271.57 325.735 271.57Z" fill="#263238"/>
<path d="M325.255 277.123H382.26C382.519 277.115 382.767 277.014 382.957 276.837C383.147 276.661 383.267 276.422 383.295 276.164C383.309 276.042 383.297 275.918 383.26 275.801C383.222 275.684 383.16 275.576 383.078 275.486C382.995 275.395 382.894 275.322 382.781 275.274C382.668 275.225 382.547 275.202 382.424 275.204H325.419C325.159 275.209 324.91 275.31 324.719 275.487C324.528 275.664 324.409 275.905 324.384 276.164C324.37 276.285 324.382 276.409 324.419 276.526C324.457 276.643 324.519 276.751 324.601 276.842C324.684 276.932 324.785 277.005 324.898 277.053C325.01 277.102 325.132 277.125 325.255 277.123Z" fill="#263238"/>
<path d="M324.763 282.688H381.768C382.029 282.686 382.279 282.586 382.471 282.409C382.662 282.232 382.78 281.989 382.802 281.729C382.817 281.607 382.805 281.483 382.768 281.366C382.73 281.249 382.668 281.142 382.586 281.051C382.503 280.96 382.402 280.888 382.289 280.839C382.176 280.791 382.054 280.767 381.932 280.77H324.94C324.678 280.775 324.427 280.875 324.234 281.051C324.042 281.228 323.92 281.469 323.892 281.729C323.88 281.851 323.893 281.973 323.931 282.089C323.969 282.205 324.032 282.312 324.114 282.403C324.196 282.493 324.296 282.565 324.408 282.614C324.52 282.664 324.641 282.689 324.763 282.688Z" fill="#263238"/>
<path d="M324.334 288.228H374.246C374.508 288.224 374.758 288.123 374.951 287.947C375.144 287.77 375.266 287.529 375.294 287.269C375.306 287.148 375.293 287.025 375.254 286.909C375.216 286.793 375.154 286.686 375.072 286.595C374.99 286.505 374.89 286.433 374.778 286.384C374.666 286.334 374.545 286.309 374.423 286.31H324.448C324.187 286.315 323.938 286.415 323.747 286.592C323.557 286.769 323.437 287.01 323.413 287.269C323.397 287.395 323.41 287.524 323.45 287.644C323.491 287.765 323.557 287.876 323.646 287.967C323.734 288.059 323.841 288.13 323.96 288.175C324.079 288.22 324.207 288.238 324.334 288.228Z" fill="#263238"/>
<path d="M323.791 293.768H380.796C381.056 293.767 381.307 293.669 381.5 293.495C381.693 293.32 381.815 293.081 381.843 292.822C381.856 292.699 381.842 292.575 381.803 292.458C381.764 292.342 381.701 292.234 381.617 292.144C381.534 292.053 381.432 291.981 381.319 291.933C381.205 291.884 381.083 291.86 380.96 291.863H323.968C323.706 291.868 323.456 291.968 323.263 292.144C323.07 292.321 322.948 292.562 322.92 292.822C322.908 292.943 322.921 293.065 322.96 293.181C322.998 293.296 323.06 293.402 323.143 293.491C323.225 293.581 323.325 293.652 323.437 293.7C323.549 293.747 323.67 293.771 323.791 293.768Z" fill="#263238"/>
<path d="M323.312 299.321H380.316C380.574 299.317 380.822 299.218 381.013 299.044C381.203 298.869 381.324 298.631 381.351 298.375C381.366 298.253 381.354 298.129 381.316 298.012C381.279 297.895 381.217 297.788 381.134 297.697C381.052 297.606 380.951 297.534 380.838 297.485C380.725 297.437 380.603 297.413 380.48 297.416H323.476C323.216 297.421 322.966 297.521 322.776 297.698C322.585 297.875 322.466 298.116 322.441 298.375C322.428 298.496 322.442 298.618 322.48 298.733C322.518 298.849 322.581 298.955 322.663 299.044C322.745 299.134 322.846 299.205 322.958 299.252C323.069 299.3 323.19 299.324 323.312 299.321Z" fill="#263238"/>
<path d="M344.147 220.408H375.357C375.618 220.406 375.868 220.307 376.06 220.129C376.251 219.952 376.369 219.709 376.391 219.449C376.406 219.327 376.394 219.204 376.357 219.087C376.319 218.97 376.257 218.862 376.175 218.771C376.092 218.68 375.991 218.608 375.878 218.56C375.765 218.511 375.643 218.488 375.521 218.49H344.311C344.052 218.498 343.804 218.599 343.614 218.776C343.424 218.952 343.304 219.191 343.277 219.449C343.262 219.571 343.274 219.695 343.311 219.812C343.349 219.929 343.411 220.036 343.493 220.127C343.576 220.218 343.677 220.29 343.79 220.339C343.903 220.387 344.025 220.411 344.147 220.408Z" fill="#263238"/>
<path d="M348.691 226.744H369.766C370.026 226.739 370.275 226.641 370.467 226.467C370.66 226.293 370.783 226.055 370.813 225.797C370.826 225.674 370.812 225.551 370.773 225.434C370.734 225.317 370.671 225.209 370.588 225.119C370.504 225.028 370.402 224.956 370.289 224.908C370.176 224.859 370.053 224.836 369.93 224.838H348.855C348.594 224.84 348.343 224.94 348.151 225.117C347.96 225.295 347.842 225.537 347.82 225.797C347.807 225.918 347.821 226.04 347.859 226.156C347.897 226.271 347.959 226.377 348.042 226.467C348.124 226.556 348.225 226.627 348.336 226.675C348.448 226.723 348.569 226.746 348.691 226.744Z" fill="#263238"/>
<g opacity="0.4">
<path d="M339.932 214.061H380.682C380.944 214.056 381.195 213.956 381.388 213.779C381.58 213.603 381.702 213.361 381.73 213.101C381.74 212.981 381.726 212.859 381.687 212.745C381.648 212.63 381.585 212.525 381.503 212.436C381.421 212.347 381.322 212.276 381.211 212.228C381.1 212.179 380.98 212.154 380.859 212.155H340.096C339.837 212.159 339.588 212.258 339.395 212.432C339.202 212.606 339.079 212.844 339.049 213.101C339.036 213.224 339.05 213.348 339.089 213.465C339.128 213.582 339.191 213.689 339.275 213.78C339.358 213.871 339.46 213.942 339.573 213.991C339.687 214.039 339.809 214.063 339.932 214.061Z" fill="white"/>
<path d="M326.227 266.017H376.139C376.401 266.012 376.651 265.912 376.844 265.736C377.037 265.559 377.159 265.318 377.187 265.058C377.197 264.936 377.182 264.814 377.142 264.698C377.103 264.583 377.039 264.477 376.956 264.388C376.872 264.299 376.771 264.228 376.659 264.18C376.546 264.133 376.425 264.109 376.303 264.111H326.391C326.132 264.113 325.883 264.211 325.692 264.386C325.501 264.561 325.381 264.8 325.356 265.058C325.342 265.18 325.354 265.304 325.391 265.421C325.428 265.537 325.49 265.645 325.573 265.736C325.656 265.827 325.757 265.899 325.869 265.948C325.982 265.996 326.104 266.02 326.227 266.017Z" fill="white"/>
<path d="M325.735 271.57H382.739C383 271.568 383.251 271.468 383.442 271.291C383.634 271.113 383.752 270.871 383.774 270.611C383.787 270.49 383.773 270.368 383.735 270.252C383.697 270.137 383.634 270.031 383.552 269.941C383.47 269.852 383.369 269.781 383.257 269.733C383.146 269.685 383.025 269.662 382.903 269.664H325.911C325.652 269.669 325.403 269.767 325.21 269.941C325.017 270.115 324.894 270.353 324.864 270.611C324.852 270.732 324.865 270.855 324.903 270.971C324.941 271.087 325.003 271.194 325.086 271.284C325.168 271.375 325.268 271.447 325.38 271.496C325.492 271.545 325.613 271.57 325.735 271.57Z" fill="white"/>
<path d="M325.255 277.123H382.26C382.519 277.115 382.767 277.014 382.957 276.837C383.147 276.661 383.267 276.422 383.295 276.164C383.309 276.042 383.297 275.918 383.26 275.801C383.222 275.684 383.16 275.576 383.078 275.486C382.995 275.395 382.894 275.322 382.781 275.274C382.669 275.225 382.547 275.202 382.424 275.204H325.419C325.159 275.209 324.91 275.31 324.719 275.487C324.528 275.664 324.409 275.905 324.385 276.164C324.37 276.285 324.382 276.409 324.419 276.526C324.457 276.643 324.519 276.751 324.601 276.842C324.684 276.932 324.785 277.005 324.898 277.053C325.011 277.102 325.133 277.125 325.255 277.123Z" fill="white"/>
<path d="M324.763 282.688H381.768C382.029 282.686 382.279 282.586 382.471 282.409C382.662 282.232 382.78 281.989 382.802 281.729C382.817 281.607 382.805 281.483 382.768 281.366C382.73 281.249 382.668 281.142 382.586 281.051C382.503 280.96 382.402 280.888 382.289 280.839C382.176 280.791 382.054 280.767 381.932 280.77H324.94C324.678 280.775 324.427 280.875 324.235 281.051C324.042 281.228 323.92 281.469 323.892 281.729C323.88 281.851 323.893 281.973 323.931 282.089C323.97 282.205 324.032 282.312 324.114 282.403C324.196 282.493 324.296 282.565 324.408 282.614C324.52 282.664 324.641 282.689 324.763 282.688Z" fill="white"/>
<path d="M324.334 288.228H374.246C374.508 288.224 374.758 288.124 374.951 287.947C375.144 287.77 375.266 287.529 375.294 287.269C375.306 287.148 375.293 287.025 375.255 286.909C375.216 286.793 375.154 286.686 375.072 286.596C374.99 286.505 374.89 286.433 374.778 286.384C374.666 286.335 374.545 286.309 374.423 286.31H324.448C324.188 286.315 323.938 286.416 323.747 286.592C323.557 286.769 323.438 287.01 323.413 287.269C323.397 287.396 323.41 287.524 323.451 287.645C323.491 287.765 323.558 287.876 323.646 287.967C323.734 288.059 323.841 288.13 323.961 288.175C324.08 288.221 324.207 288.239 324.334 288.228Z" fill="white"/>
<path d="M323.791 293.768H380.796C381.056 293.767 381.307 293.669 381.5 293.495C381.693 293.32 381.815 293.081 381.843 292.822C381.856 292.699 381.842 292.575 381.803 292.458C381.764 292.342 381.701 292.234 381.618 292.144C381.534 292.053 381.432 291.981 381.319 291.933C381.206 291.884 381.083 291.86 380.96 291.863H323.968C323.707 291.868 323.456 291.968 323.263 292.144C323.07 292.321 322.948 292.562 322.921 292.822C322.908 292.943 322.921 293.065 322.96 293.181C322.998 293.296 323.06 293.402 323.143 293.491C323.225 293.581 323.325 293.652 323.437 293.7C323.549 293.747 323.67 293.771 323.791 293.768Z" fill="white"/>
<path d="M323.312 299.321H380.316C380.574 299.317 380.822 299.218 381.013 299.044C381.203 298.869 381.324 298.631 381.351 298.375C381.366 298.253 381.354 298.129 381.316 298.012C381.279 297.895 381.217 297.788 381.134 297.697C381.052 297.606 380.951 297.534 380.838 297.485C380.725 297.437 380.603 297.413 380.48 297.416H323.476C323.216 297.421 322.966 297.521 322.776 297.698C322.585 297.875 322.466 298.116 322.441 298.375C322.428 298.496 322.442 298.618 322.48 298.733C322.518 298.849 322.581 298.955 322.663 299.044C322.745 299.134 322.846 299.205 322.958 299.252C323.069 299.3 323.19 299.324 323.312 299.321Z" fill="white"/>
<path d="M344.147 220.408H375.357C375.618 220.406 375.868 220.307 376.06 220.129C376.251 219.952 376.369 219.709 376.391 219.449C376.406 219.327 376.394 219.204 376.357 219.087C376.319 218.97 376.257 218.862 376.175 218.771C376.092 218.68 375.991 218.608 375.878 218.56C375.765 218.511 375.643 218.488 375.521 218.49H344.311C344.052 218.498 343.804 218.599 343.614 218.776C343.424 218.952 343.304 219.191 343.277 219.449C343.262 219.571 343.274 219.695 343.311 219.812C343.349 219.929 343.411 220.036 343.493 220.127C343.576 220.218 343.677 220.29 343.79 220.339C343.903 220.387 344.025 220.411 344.147 220.408Z" fill="white"/>
<path d="M348.691 226.744H369.766C370.026 226.739 370.275 226.641 370.467 226.467C370.66 226.293 370.783 226.055 370.813 225.797C370.826 225.675 370.812 225.551 370.773 225.434C370.734 225.317 370.671 225.209 370.588 225.119C370.504 225.028 370.402 224.956 370.289 224.908C370.176 224.859 370.053 224.836 369.93 224.838H348.855C348.594 224.84 348.343 224.94 348.151 225.117C347.96 225.295 347.842 225.537 347.82 225.797C347.807 225.918 347.821 226.04 347.859 226.156C347.897 226.271 347.959 226.377 348.042 226.467C348.124 226.556 348.225 226.627 348.336 226.675C348.448 226.723 348.569 226.746 348.691 226.744Z" fill="white"/>
</g>
<path opacity="0.5" d="M326.088 256.729H384.998L386.967 234.126H328.057L326.088 256.729Z" fill="white"/>
<path d="M261.461 373.262H313.127V324.536H261.461V373.262Z" fill="#263238"/>
<path d="M211.057 373.262H262.723V324.536H211.057V373.262Z" fill="#263238"/>
<path d="M260.944 329.508H313.115V322.744H260.944V329.508Z" fill="#263238"/>
<path d="M260.956 325.646H354.256V317.784H260.956V325.646Z" fill="#263238"/>
<path opacity="0.2" d="M211.057 373.262H262.723V324.536H211.057V373.262Z" fill="black"/>
<path opacity="0.2" d="M260.944 329.508H313.115V322.744H260.944V329.508Z" fill="black"/>
<path opacity="0.2" d="M260.956 325.646H354.256V317.784H260.956V325.646Z" fill="black"/>
<path d="M169.928 325.646H263.228V317.784H169.928V325.646Z" fill="#263238"/>
<path d="M169.941 400.811C170.276 400.811 170.597 400.678 170.833 400.442C171.07 400.205 171.203 399.884 171.203 399.549V323.072C171.201 322.536 171.306 322.004 171.51 321.508C171.714 321.012 172.014 320.561 172.392 320.181C172.771 319.802 173.221 319.5 173.716 319.295C174.212 319.089 174.743 318.983 175.279 318.983H261.979C262.313 318.983 262.634 318.85 262.871 318.613C263.108 318.377 263.241 318.056 263.241 317.721C263.241 317.386 263.108 317.065 262.871 316.829C262.634 316.592 262.313 316.459 261.979 316.459H175.279C173.528 316.462 171.849 317.161 170.611 318.4C169.374 319.64 168.679 321.32 168.679 323.072V399.549C168.679 399.884 168.812 400.205 169.049 400.442C169.285 400.678 169.606 400.811 169.941 400.811Z" fill="#407BFF"/>
<path d="M169.663 404.092C174.307 404.092 178.068 410.15 178.068 417.621V427.237H173.904C173.449 427.237 170.9 426.733 170.9 417.533C170.9 417.533 169.487 427.212 171.834 427.237H168.288C168.288 427.237 166.168 426.834 166.168 421.71V413.936C166.168 413.936 162.773 427.187 166.168 427.187H161.246V417.571C161.246 410.15 165.019 404.092 169.663 404.092Z" fill="#407BFF"/>
<path d="M166.836 402.073H172.49C172.825 402.073 173.146 401.94 173.382 401.704C173.619 401.467 173.752 401.146 173.752 400.811C173.752 400.476 173.619 400.155 173.382 399.919C173.146 399.682 172.825 399.549 172.49 399.549H166.836C166.502 399.549 166.181 399.682 165.944 399.919C165.707 400.155 165.574 400.476 165.574 400.811C165.574 401.146 165.707 401.467 165.944 401.704C166.181 401.94 166.502 402.073 166.836 402.073Z" fill="#407BFF"/>
<path d="M166.836 404.597H172.49C172.825 404.597 173.146 404.464 173.382 404.228C173.619 403.991 173.752 403.67 173.752 403.335C173.752 403.001 173.619 402.68 173.382 402.443C173.146 402.206 172.825 402.073 172.49 402.073H166.836C166.502 402.073 166.181 402.206 165.944 402.443C165.707 402.68 165.574 403.001 165.574 403.335C165.574 403.67 165.707 403.991 165.944 404.228C166.181 404.464 166.502 404.597 166.836 404.597Z" fill="#407BFF"/>
<path d="M434.759 473.099H204.797V521.055H434.835C432.765 505.138 432.74 489.022 434.759 473.099Z" fill="#0F0BCC"/>
<path opacity="0.7" d="M434.759 473.099H204.797V521.055H434.835C432.765 505.138 432.74 489.022 434.759 473.099Z" fill="white"/>
<path d="M246.696 523.579H174.421L173.689 522.834C170.264 519.412 167.548 515.348 165.694 510.876C163.84 506.403 162.886 501.609 162.886 496.767C162.886 491.926 163.84 487.132 165.694 482.659C167.548 478.187 170.264 474.123 173.689 470.701L174.421 469.969H246.696L242.392 474.272C236.43 480.24 233.081 488.331 233.081 496.767C233.081 505.204 236.43 513.295 242.392 519.263L246.696 523.579Z" fill="#0F0BCC"/>
<g opacity="0.3">
<path d="M246.696 523.579H174.421L173.689 522.834C170.264 519.412 167.548 515.348 165.694 510.876C163.84 506.403 162.886 501.609 162.886 496.767C162.886 491.926 163.84 487.132 165.694 482.659C167.548 478.187 170.264 474.123 173.689 470.701L174.421 469.969H246.696L242.392 474.272C236.43 480.24 233.081 488.331 233.081 496.767C233.081 505.204 236.43 513.295 242.392 519.263L246.696 523.579Z" fill="black"/>
</g>
<path d="M437.119 523.579H241.913L241.698 523.364C234.869 516.681 230.812 507.668 230.34 498.124C230.154 493.057 231.021 488.006 232.884 483.291C234.748 478.575 237.569 474.297 241.168 470.726L241.913 469.994H437.119C437.788 469.994 438.43 470.26 438.904 470.733C439.377 471.207 439.643 471.849 439.643 472.518C439.643 473.188 439.377 473.83 438.904 474.303C438.43 474.776 437.788 475.042 437.119 475.042H244.033C238.512 480.941 235.44 488.719 235.44 496.799C235.44 504.879 238.512 512.657 244.033 518.556H437.119C437.788 518.556 438.43 518.822 438.904 519.295C439.377 519.768 439.643 520.41 439.643 521.08C439.636 521.745 439.367 522.38 438.895 522.848C438.422 523.316 437.784 523.579 437.119 523.579Z" fill="#0F0BCC"/>
<path d="M416.712 490.918H405.67C405.168 490.918 404.686 490.719 404.331 490.364C403.976 490.009 403.777 489.527 403.777 489.025C403.777 488.523 403.976 488.042 404.331 487.687C404.686 487.332 405.168 487.132 405.67 487.132H416.712C417.214 487.132 417.696 487.332 418.051 487.687C418.406 488.042 418.605 488.523 418.605 489.025C418.605 489.527 418.406 490.009 418.051 490.364C417.696 490.719 417.214 490.918 416.712 490.918Z" fill="white"/>
<path d="M391.22 490.918H288.619C288.117 490.918 287.636 490.719 287.281 490.364C286.926 490.009 286.726 489.527 286.726 489.025C286.726 488.523 286.926 488.042 287.281 487.687C287.636 487.332 288.117 487.132 288.619 487.132H391.22C391.722 487.132 392.203 487.332 392.558 487.687C392.913 488.042 393.113 488.523 393.113 489.025C393.113 489.527 392.913 490.009 392.558 490.364C392.203 490.719 391.722 490.918 391.22 490.918Z" fill="white"/>
<path d="M274.737 490.918H252.021C251.519 490.918 251.038 490.719 250.683 490.364C250.328 490.009 250.128 489.527 250.128 489.025C250.128 488.523 250.328 488.042 250.683 487.687C251.038 487.332 251.519 487.132 252.021 487.132H274.737C275.239 487.132 275.721 487.332 276.076 487.687C276.431 488.042 276.63 488.523 276.63 489.025C276.63 489.527 276.431 490.009 276.076 490.364C275.721 490.719 275.239 490.918 274.737 490.918Z" fill="white"/>
<path d="M416.712 506.958H319.538C319.036 506.958 318.555 506.759 318.2 506.404C317.845 506.049 317.645 505.567 317.645 505.065C317.645 504.563 317.845 504.081 318.2 503.726C318.555 503.371 319.036 503.172 319.538 503.172H416.712C417.214 503.172 417.696 503.371 418.051 503.726C418.406 504.081 418.605 504.563 418.605 505.065C418.605 505.567 418.406 506.049 418.051 506.404C417.696 506.759 417.214 506.958 416.712 506.958Z" fill="white"/>
<path d="M305.404 506.958H252.021C251.519 506.958 251.038 506.759 250.683 506.404C250.328 506.049 250.128 505.567 250.128 505.065C250.128 504.563 250.328 504.081 250.683 503.726C251.038 503.371 251.519 503.172 252.021 503.172H305.404C305.906 503.172 306.388 503.371 306.743 503.726C307.098 504.081 307.297 504.563 307.297 505.065C307.297 505.567 307.098 506.049 306.743 506.404C306.388 506.759 305.906 506.958 305.404 506.958Z" fill="white"/>
<path d="M428.664 376.291H221.696V419.451H428.739C426.872 405.126 426.846 390.622 428.664 376.291Z" fill="#0F0BCC"/>
<path opacity="0.8" d="M428.664 376.291H221.696V419.451H428.739C426.872 405.126 426.846 390.622 428.664 376.291Z" fill="white"/>
<path d="M259.404 421.723H194.348L193.679 421.054C190.599 417.974 188.155 414.317 186.488 410.293C184.82 406.269 183.962 401.955 183.962 397.599C183.962 393.243 184.82 388.93 186.488 384.906C188.155 380.881 190.599 377.225 193.679 374.145L194.348 373.476H259.391L255.53 377.338C250.165 382.711 247.152 389.994 247.152 397.587C247.152 405.18 250.165 412.462 255.53 417.836L259.404 421.723Z" fill="#0F0BCC"/>
<g opacity="0.2">
<path d="M259.404 421.723H194.348L193.679 421.054C190.599 417.974 188.155 414.317 186.488 410.293C184.82 406.269 183.962 401.955 183.962 397.599C183.962 393.243 184.82 388.93 186.488 384.906C188.155 380.881 190.599 377.225 193.679 374.145L194.348 373.476H259.391L255.53 377.338C250.165 382.711 247.152 389.994 247.152 397.587C247.152 405.18 250.165 412.462 255.53 417.836L259.404 421.723Z" fill="white"/>
</g>
<path d="M430.784 421.723H255.101L254.924 421.508C248.79 415.49 245.157 407.376 244.752 398.792C244.574 394.237 245.344 389.694 247.012 385.452C248.68 381.209 251.211 377.359 254.444 374.145L255.113 373.476H430.784C431.386 373.476 431.964 373.716 432.39 374.142C432.816 374.568 433.055 375.145 433.055 375.748C433.055 376.35 432.816 376.928 432.39 377.354C431.964 377.78 431.386 378.02 430.784 378.02H256.994C252.034 383.326 249.276 390.318 249.276 397.581C249.276 404.843 252.034 411.835 256.994 417.142H430.784C431.386 417.142 431.964 417.381 432.39 417.807C432.816 418.233 433.055 418.811 433.055 419.413C433.06 419.715 433.005 420.014 432.893 420.294C432.781 420.574 432.615 420.829 432.404 421.044C432.192 421.259 431.94 421.43 431.662 421.546C431.384 421.663 431.085 421.723 430.784 421.723Z" fill="#0F0BCC"/>
<g opacity="0.4">
<path d="M430.784 421.723H255.101L254.924 421.508C248.79 415.49 245.157 407.376 244.752 398.792C244.574 394.237 245.344 389.694 247.012 385.452C248.68 381.209 251.211 377.359 254.444 374.145L255.113 373.476H430.784C431.386 373.476 431.964 373.716 432.39 374.142C432.816 374.568 433.055 375.145 433.055 375.748C433.055 376.35 432.816 376.928 432.39 377.354C431.964 377.78 431.386 378.02 430.784 378.02H256.994C252.034 383.326 249.276 390.318 249.276 397.581C249.276 404.843 252.034 411.835 256.994 417.142H430.784C431.386 417.142 431.964 417.381 432.39 417.807C432.816 418.233 433.055 418.811 433.055 419.413C433.06 419.715 433.005 420.014 432.893 420.294C432.781 420.574 432.615 420.829 432.404 421.044C432.192 421.259 431.94 421.43 431.662 421.546C431.384 421.663 431.085 421.723 430.784 421.723Z" fill="white"/>
</g>
<path d="M412.422 392.381H402.477C402.025 392.381 401.592 392.202 401.272 391.882C400.953 391.563 400.773 391.129 400.773 390.677C400.773 390.454 400.817 390.232 400.903 390.025C400.989 389.819 401.114 389.631 401.272 389.473C401.43 389.314 401.618 389.189 401.825 389.103C402.032 389.018 402.253 388.974 402.477 388.974H412.422C412.645 388.974 412.867 389.018 413.074 389.103C413.28 389.189 413.468 389.314 413.626 389.473C413.784 389.631 413.91 389.819 413.996 390.025C414.081 390.232 414.125 390.454 414.125 390.677C414.125 391.129 413.946 391.563 413.626 391.882C413.307 392.202 412.873 392.381 412.422 392.381Z" fill="white"/>
<path d="M389.415 392.381H297.138C296.914 392.383 296.691 392.34 296.484 392.255C296.276 392.17 296.088 392.044 295.929 391.886C295.771 391.727 295.645 391.539 295.56 391.331C295.475 391.124 295.432 390.902 295.434 390.677C295.432 390.453 295.475 390.231 295.56 390.023C295.645 389.816 295.771 389.627 295.929 389.469C296.088 389.31 296.276 389.185 296.484 389.1C296.691 389.015 296.914 388.972 297.138 388.974H389.415C389.639 388.972 389.862 389.015 390.069 389.1C390.277 389.185 390.465 389.31 390.624 389.469C390.782 389.627 390.908 389.816 390.993 390.023C391.078 390.231 391.121 390.453 391.119 390.677C391.121 390.902 391.078 391.124 390.993 391.331C390.908 391.539 390.782 391.727 390.624 391.886C390.465 392.044 390.277 392.17 390.069 392.255C389.862 392.34 389.639 392.383 389.415 392.381Z" fill="white"/>
<path d="M284.644 392.381H264.2C263.976 392.383 263.753 392.34 263.546 392.255C263.338 392.17 263.15 392.044 262.991 391.886C262.833 391.727 262.707 391.539 262.622 391.331C262.537 391.124 262.494 390.902 262.496 390.677C262.494 390.453 262.537 390.231 262.622 390.023C262.707 389.816 262.833 389.627 262.991 389.469C263.15 389.31 263.338 389.185 263.546 389.1C263.753 389.015 263.976 388.972 264.2 388.974H284.644C284.868 388.972 285.091 389.015 285.298 389.1C285.506 389.185 285.694 389.31 285.853 389.469C286.011 389.627 286.137 389.816 286.222 390.023C286.307 390.231 286.349 390.453 286.348 390.677C286.349 390.902 286.307 391.124 286.222 391.331C286.137 391.539 286.011 391.727 285.853 391.886C285.694 392.044 285.506 392.17 285.298 392.255C285.091 392.34 284.868 392.383 284.644 392.381Z" fill="white"/>
<path d="M412.422 406.768H324.965C324.741 406.77 324.518 406.727 324.311 406.642C324.104 406.557 323.915 406.431 323.757 406.273C323.598 406.114 323.473 405.926 323.388 405.718C323.303 405.511 323.26 405.288 323.261 405.064C323.26 404.84 323.303 404.618 323.388 404.41C323.473 404.203 323.598 404.014 323.757 403.856C323.915 403.697 324.104 403.572 324.311 403.487C324.518 403.402 324.741 403.359 324.965 403.361H412.422C412.873 403.361 413.307 403.54 413.626 403.86C413.946 404.179 414.125 404.612 414.125 405.064C414.125 405.516 413.946 405.949 413.626 406.269C413.307 406.588 412.873 406.768 412.422 406.768Z" fill="white"/>
<path d="M312.181 406.768H264.225C264.002 406.773 263.78 406.734 263.572 406.653C263.364 406.571 263.174 406.45 263.014 406.295C262.853 406.14 262.724 405.955 262.636 405.75C262.547 405.546 262.499 405.325 262.496 405.102C262.494 404.878 262.537 404.656 262.622 404.448C262.707 404.241 262.833 404.052 262.991 403.894C263.15 403.735 263.338 403.61 263.546 403.525C263.753 403.44 263.976 403.397 264.2 403.398H312.156C312.38 403.397 312.602 403.44 312.81 403.525C313.017 403.61 313.206 403.735 313.364 403.894C313.523 404.052 313.648 404.241 313.733 404.448C313.818 404.656 313.861 404.878 313.859 405.102C313.853 405.544 313.673 405.966 313.36 406.277C313.046 406.588 312.623 406.765 312.181 406.768Z" fill="white"/>
<path d="M435.945 424.537H228.977V467.697H436.021C434.153 453.373 434.128 438.868 435.945 424.537Z" fill="#0F0BCC"/>
<path opacity="0.7" d="M435.945 424.537H228.977V467.697H436.021C434.153 453.373 434.128 438.868 435.945 424.537Z" fill="white"/>
<path d="M266.698 469.969H201.642L200.986 469.3C197.906 466.22 195.462 462.564 193.795 458.539C192.128 454.515 191.269 450.202 191.269 445.846C191.269 441.49 192.128 437.176 193.795 433.152C195.462 429.128 197.906 425.471 200.986 422.391L201.642 421.723H266.698L262.824 425.597C260.163 428.255 258.053 431.412 256.612 434.886C255.172 438.36 254.431 442.085 254.431 445.846C254.431 449.607 255.172 453.331 256.612 456.805C258.053 460.28 260.163 463.436 262.824 466.094L266.698 469.969Z" fill="#0F0BCC"/>
<path d="M438.078 469.969H262.382L262.193 469.78C256.059 463.761 252.426 455.647 252.021 447.064C251.848 442.509 252.62 437.967 254.288 433.726C255.956 429.484 258.484 425.633 261.714 422.417L262.382 421.748H438.078C438.679 421.751 439.255 421.992 439.681 422.417C440.106 422.842 440.346 423.418 440.35 424.019C440.346 424.621 440.106 425.197 439.681 425.622C439.255 426.047 438.679 426.288 438.078 426.291H264.288C259.32 431.593 256.556 438.586 256.556 445.852C256.556 453.118 259.32 460.111 264.288 465.413H438.078C438.376 465.413 438.672 465.472 438.947 465.586C439.223 465.7 439.473 465.867 439.684 466.078C439.895 466.289 440.063 466.54 440.177 466.815C440.291 467.091 440.35 467.386 440.35 467.685C440.35 468.288 440.111 468.867 439.685 469.295C439.259 469.723 438.682 469.965 438.078 469.969Z" fill="#0F0BCC"/>
<g opacity="0.3">
<path d="M438.078 469.969H262.382L262.193 469.78C256.059 463.761 252.426 455.647 252.021 447.064C251.848 442.509 252.62 437.967 254.288 433.726C255.956 429.484 258.484 425.633 261.714 422.417L262.382 421.748H438.078C438.679 421.751 439.255 421.992 439.681 422.417C440.106 422.842 440.346 423.418 440.35 424.019C440.346 424.621 440.106 425.197 439.681 425.622C439.255 426.047 438.679 426.288 438.078 426.291H264.288C259.32 431.593 256.556 438.586 256.556 445.852C256.556 453.118 259.32 460.111 264.288 465.413H438.078C438.376 465.413 438.672 465.472 438.947 465.586C439.223 465.7 439.473 465.867 439.684 466.078C439.895 466.289 440.063 466.54 440.177 466.815C440.291 467.091 440.35 467.386 440.35 467.685C440.35 468.288 440.111 468.867 439.685 469.295C439.259 469.723 438.682 469.965 438.078 469.969Z" fill="white"/>
</g>
<path d="M271.481 451.607H281.426C281.878 451.607 282.311 451.786 282.631 452.106C282.95 452.425 283.13 452.859 283.13 453.31C283.126 453.761 282.946 454.193 282.627 454.511C282.308 454.83 281.877 455.011 281.426 455.014H271.481C271.031 455.011 270.599 454.83 270.28 454.511C269.962 454.193 269.781 453.761 269.778 453.31C269.778 452.859 269.957 452.425 270.277 452.106C270.596 451.786 271.03 451.607 271.481 451.607Z" fill="white"/>
<path d="M294.488 451.607H386.765C386.989 451.605 387.212 451.648 387.419 451.733C387.627 451.818 387.815 451.943 387.974 452.102C388.132 452.261 388.258 452.449 388.343 452.656C388.428 452.864 388.471 453.086 388.469 453.31C388.469 453.534 388.425 453.756 388.339 453.962C388.254 454.169 388.128 454.357 387.97 454.515C387.812 454.673 387.624 454.799 387.417 454.884C387.21 454.97 386.989 455.014 386.765 455.014H294.488C294.264 455.014 294.042 454.97 293.836 454.884C293.629 454.799 293.441 454.673 293.283 454.515C293.125 454.357 292.999 454.169 292.914 453.962C292.828 453.756 292.784 453.534 292.784 453.31C292.782 453.086 292.825 452.864 292.91 452.656C292.995 452.449 293.121 452.261 293.279 452.102C293.438 451.943 293.626 451.818 293.834 451.733C294.041 451.648 294.263 451.605 294.488 451.607Z" fill="white"/>
<path d="M399.259 451.607H419.703C419.928 451.605 420.15 451.648 420.357 451.733C420.565 451.818 420.753 451.943 420.912 452.102C421.07 452.261 421.196 452.449 421.281 452.656C421.366 452.864 421.409 453.086 421.407 453.31C421.407 453.534 421.363 453.756 421.277 453.962C421.192 454.169 421.066 454.357 420.908 454.515C420.75 454.673 420.562 454.799 420.355 454.884C420.149 454.97 419.927 455.014 419.703 455.014H399.259C399.034 455.016 398.81 454.973 398.601 454.888C398.392 454.804 398.202 454.679 398.042 454.52C397.881 454.362 397.753 454.174 397.665 453.966C397.578 453.759 397.532 453.536 397.53 453.31C397.53 453.085 397.575 452.861 397.662 452.653C397.749 452.444 397.877 452.255 398.038 452.097C398.199 451.938 398.39 451.813 398.599 451.729C398.809 451.645 399.033 451.603 399.259 451.607Z" fill="white"/>
<path d="M271.481 437.22H358.938C359.162 437.218 359.385 437.261 359.592 437.346C359.799 437.431 359.988 437.557 360.146 437.715C360.305 437.874 360.43 438.062 360.515 438.27C360.6 438.477 360.643 438.699 360.642 438.924C360.642 439.147 360.598 439.369 360.512 439.576C360.426 439.782 360.301 439.97 360.143 440.128C359.985 440.286 359.797 440.412 359.59 440.498C359.383 440.583 359.162 440.627 358.938 440.627H271.481C271.031 440.624 270.599 440.443 270.28 440.125C269.962 439.806 269.781 439.374 269.778 438.924C269.778 438.472 269.957 438.038 270.277 437.719C270.596 437.399 271.03 437.22 271.481 437.22Z" fill="white"/>
<path d="M371.722 437.22H419.678C419.902 437.218 420.125 437.261 420.332 437.346C420.539 437.431 420.728 437.557 420.886 437.715C421.045 437.874 421.17 438.062 421.255 438.27C421.341 438.477 421.383 438.699 421.382 438.924C421.382 439.375 421.202 439.809 420.883 440.128C420.563 440.448 420.13 440.627 419.678 440.627H371.722C371.498 440.627 371.277 440.583 371.07 440.498C370.863 440.412 370.676 440.286 370.517 440.128C370.359 439.97 370.234 439.782 370.148 439.576C370.062 439.369 370.018 439.147 370.018 438.924C370.017 438.699 370.06 438.477 370.145 438.27C370.23 438.062 370.355 437.874 370.514 437.715C370.672 437.557 370.861 437.431 371.068 437.346C371.276 437.261 371.498 437.218 371.722 437.22Z" fill="white"/>
</svg>
