<svg width="162" height="150" viewBox="0 0 162 150" fill="none" xmlns="http://www.w3.org/2000/svg">
<g clip-path="url(#clip0_23_20)">
<path d="M81.0377 60.2292C83.8193 60.2294 86.5387 61.0804 88.8536 62.6753C91.1684 64.2701 92.9752 66.5374 94.0464 69.1918C95.1176 71.8461 95.4054 74.7688 94.8736 77.5919C94.3418 80.415 93.0141 83.0124 91.0577 85.0569C89.1013 87.1014 86.6036 88.5018 83.8791 89.0817C81.1546 89.6616 78.3251 89.3951 75.7467 88.3158C73.1684 87.2364 70.9565 85.3925 69.3896 83.0161C67.8226 80.6397 66.9707 77.837 66.9409 74.961C66.931 73.0366 67.2877 71.1291 67.9908 69.3473C68.6939 67.5655 69.7295 65.9443 71.0385 64.5763C72.3475 63.2083 73.9043 62.1203 75.6199 61.3744C77.3356 60.6286 79.1766 60.2394 81.0377 60.2292ZM46.1349 137.318C50.8841 140.28 61.2117 135.759 73.2732 124.067C69.2419 119.33 65.4428 114.387 61.8902 109.257C55.8099 108.553 49.7705 107.512 43.798 106.139C39.9535 122.82 41.3858 134.278 46.1349 137.318ZM51.4872 92.5769L49.3011 88.6016C48.4489 90.7909 47.719 93.0291 47.1149 95.305C49.1503 95.7726 51.4118 96.1624 53.7487 96.5521L51.4872 92.5769ZM100.788 86.6529L106.894 74.961L100.788 63.2691C98.5268 59.138 96.1145 55.4745 93.9283 51.811C89.8576 51.5772 85.5607 51.5772 81.0377 51.5772C76.5147 51.5772 72.2178 51.5772 68.147 51.5772C65.9609 55.2407 63.5486 58.9041 61.2871 63.0353L55.181 74.961L61.2871 86.6529C63.5486 90.7841 65.9609 94.4476 68.147 98.111C72.2178 98.111 76.5147 98.111 81.0377 98.111C85.5607 98.111 89.8576 98.111 93.9283 98.111C96.1145 94.4476 98.5268 90.7841 100.788 86.6529ZM81.0377 34.2732C79.6054 35.988 78.0977 37.7807 76.59 39.8853H85.4853C83.9777 37.7807 82.47 35.988 81.0377 34.2732ZM81.0377 115.649C82.47 113.934 83.9777 112.141 85.4853 110.037H76.59C78.0977 112.141 79.6054 113.934 81.0377 115.649ZM115.865 12.6041C111.191 9.64219 100.788 14.1631 88.8022 25.855C92.8335 30.5918 96.6326 35.5346 100.185 40.6647C106.26 41.2659 112.299 42.2025 118.277 43.4708C122.122 26.7903 120.69 15.3323 115.865 12.2924M110.588 57.0334L112.774 61.0087C113.626 58.8193 114.356 56.5812 114.96 54.3053C112.925 53.8376 110.664 53.4479 108.327 53.0582L110.588 57.0334ZM121.519 2.47115C132.6 9.01862 133.806 26.2447 129.057 46.3548C148.205 52.2008 162 61.944 162 75.039C162 88.1339 148.205 97.8772 129.057 103.723C133.731 123.833 132.525 141.059 121.519 147.607C110.513 154.154 95.5114 146.671 81.0377 132.407C66.564 146.671 51.5626 154.154 40.4812 147.607C29.3997 141.059 28.269 124.223 32.9428 103.723C13.7953 97.8772 0 88.1339 0 75.039C0 61.944 13.7953 52.1228 32.9428 46.2769C28.269 26.1668 29.4751 8.94067 40.4812 2.3932C51.4872 -4.15427 66.564 3.32855 81.0377 17.5927C95.5114 3.32855 110.513 -4.15427 121.519 2.3932M119.333 74.961C121.951 80.699 124.266 86.5796 126.268 92.5769C142.099 87.6662 150.994 80.6511 150.994 74.961C150.994 69.271 141.872 62.2558 126.268 57.3452C124.266 63.3425 121.951 69.2231 119.333 74.961ZM42.7427 74.961C40.1246 69.2231 37.8094 63.3425 35.8074 57.3452C19.9767 62.2558 11.0814 69.271 11.0814 74.961C11.0814 80.6511 20.2029 87.6662 35.8074 92.5769C37.8094 86.5796 40.1246 80.699 42.7427 74.961ZM110.588 92.5769L108.327 96.5521C110.664 96.5521 112.925 95.7726 114.96 95.305C114.356 93.0291 113.626 90.7909 112.774 88.6016L110.588 92.5769ZM88.5761 124.067C100.562 135.759 111.191 140.28 115.639 137.318C120.087 134.356 121.896 123.132 118.051 106.139C112.073 107.408 106.034 108.344 99.9591 108.946C96.4147 114.182 92.6155 119.229 88.5761 124.067ZM51.4872 57.3452L53.7487 53.37C51.4118 53.37 49.1503 54.1494 47.1149 54.6171C47.719 56.893 48.4489 59.1311 49.3011 61.3205L51.4872 57.3452ZM73.4993 25.855C61.2871 14.1631 50.8841 9.64219 46.1349 12.6041C41.3858 15.5661 39.9535 26.7903 43.798 43.7826C49.7761 42.5143 55.8154 41.5776 61.8902 40.9765C65.5079 35.7346 69.3827 30.6875 73.4993 25.855Z" fill="#E8E8E8"/>
</g>
<defs>
<clipPath id="clip0_23_20">
<rect width="162" height="150" fill="white"/>
</clipPath>
</defs>
</svg>
